# AST/ASF file generated using VICON BodyLanguage
# -----------------------------------------------
:version 1.10
:name VICON
:units
  mass 1.0
  length 0.45
  angle deg
:documentation
   .ast/.asf automatically generated from VICON data using
   VICON BodyBuilder and BodyLanguage model FoxedUp or BRILLIANT.MOD
:root
   order TX TY TZ RX RY RZ
   axis XYZ
   position 0 0 0  
   orientation 0 0 0 
:bonedata
  begin
     id 1 
     name lhipjoint
     direction 0.578396 -0.714046 0.394458 
     length 2.21935 
     axis 0 0 0  XYZ
  end
  begin
     id 2 
     name lfemur
     direction 0.34202 -0.939693 0  
     length 6.39105  
     axis 0 0 20  XYZ
    dof rx ry rz
    limits (-160.0 20.0)
           (-70.0 70.0)
           (-60.0 70.0)
  end
  begin
     id 3 
     name ltibia
     direction 0.34202 -0.939693 0   
     length 6.99037   
     axis 0 0 20   XYZ
    dof rx
    limits (-10.0 170.0)
  end
  begin
     id 4 
     name lfoot
     direction 0.0582372 -0.160005 0.985397   
     length 2.06111   
     axis -90 7.62852e-016 20   XYZ
    dof rx rz
    limits (-45.0 90.0)
           (-70.0 20.0)
  end
  begin
     id 5 
     name ltoes
     direction 1.53556e-011 -4.21875e-011 1   
     length 1.04074   
     axis -90 7.62852e-016 20   XYZ
    dof rx
    limits (-90.0 20.0)
  end
  begin
     id 6 
     name rhipjoint
     direction -0.558179 -0.726269 0.40121   
     length 2.182  
     axis 0 0 0  XYZ 
  end
  begin
     id 7 
     name rfemur
     direction -0.34202 -0.939693 0   
     length 6.51172   
     axis 0 0 -20   XYZ
    dof rx ry rz
    limits (-160.0 20.0)
           (-70.0 70.0)
           (-70.0 60.0)
  end
  begin
     id 8 
     name rtibia
     direction -0.34202 -0.939693 0   
     length 7.02607   
     axis 0 0 -20   XYZ
    dof rx
    limits (-10.0 170.0)
 end
 begin
     id 9 
     name rfoot
     direction -0.0788856 -0.216737 0.973038   
     length 1.96734  
     axis -90 -7.62852e-016 -20   XYZ
    dof rx rz
    limits (-45.0 90.0)
           (-20.0 70.0)
  end
  begin
     id 10 
     name rtoes
     direction -1.53567e-011 -4.21783e-011 1   
     length 0.990825   
     axis -90 -7.62852e-016 -20   XYZ
    dof rx
    limits (-90.0 20.0)
  end
  begin
     id 11 
     name lowerback
     direction 0.00668177 0.999323 -0.0361741   
     length 1.7655   
     axis 0 0 0   XYZ
    dof rx ry rz
    limits (-20.0 45.0)
           (-30.0 30.0)
           (-30.0 30.0)
  end
  begin
     id 12 
     name upperback
     direction -0.00222086 0.99851 0.0545167   
     length 1.74912   
     axis 0 0 0   XYZ
    dof rx ry rz
    limits (-20.0 45.0)
           (-30.0 30.0)
           (-30.0 30.0)
  end
  begin
     id 13 
     name thorax
     direction -0.00733971 0.997496 0.0703443   
     length 1.75715   
     axis 0 0 0   XYZ
    dof rx ry rz
    limits (-20.0 45.0)
           (-30.0 30.0)
           (-30.0 30.0)
  end
  begin
     id 14 
     name lowerneck
     direction 0.0279797 0.994795 0.0979765   
     length 1.46939   
     axis 0 0 0   XYZ
    dof rx ry rz
    limits (-20.0 45.0)
           (-30.0 30.0)
           (-30.0 30.0)
  end
  begin
     id 15 
     name upperneck
     direction 0.00339187 0.976776 -0.214238   
     length 1.48018   
     axis 0 0 0   XYZ
    dof rx ry rz
    limits (-20.0 45.0)
           (-30.0 30.0)
           (-30.0 30.0)
  end
  begin
     id 16
     name head
     direction -0.00263506 0.996603 -0.0823096  
     length 1.4976  
     axis 0 0 0   XYZ
    dof rx ry rz
    limits (-20.0 45.0)
           (-30.0 30.0)
           (-30.0 30.0)
  end
  begin
     id 17 
     name lclavicle
     direction 0.894044 0.44508 -0.0508781  
     length 3.03024  
     axis 0 0 0   XYZ
    dof ry rz
    limits (-20.0 10.0)
           (0.0 20.0)
  end
  begin
     id 18 
     name lhumerus
     direction 1 -4.48961e-011 -2.39475e-018   
     length 4.4661   
     axis 180 -30 -90   XYZ
    dof rx ry rz
    limits (-60.0 90.0)
           (-90.0 90.0)
           (-90.0 90.0)
  end
  begin
     id 19
     name lradius
     direction 1 -4.48961e-011 9.29328e-028   
     length 3.41414   
     axis 180 -30 -90   XYZ
    dof rx
    limits (-10.0 170.0)
  end
  begin
     id 20
     name lwrist
     direction 1 -4.48985e-011 1.53461e-026   
     length 1.70707   
     axis -1.09697e-014 90 90   XYZ
    dof ry
    limits (-180.0 0.0)
 end
  begin
     id 21 
     name lhand
     direction 1 -4.48966e-011 3.06923e-026   
     length 0.328298   
     axis -1.95843e-014 90 90   XYZ
    dof rx rz
    limits (-90.0 90.0)
           (-45.0 45.0)
  end
  begin
     id 22 
     name lfingers
     direction 1 -4.48893e-011 6.13845e-026   
     length 0.264682   
     axis -3.91686e-014 90 90   XYZ
    dof rx
    limits (0.0 90.0)
  end
  begin
     id 23
     name lthumb
     direction 0.707107 -6.34876e-011 0.707107   
     length 0.380032   
     axis -90 45 2.85299e-015   XYZ
    dof rx rz
    limits (-45.0 45.0)
           (-45.0 45.0)
  end
  begin
     id 24 
     name rclavicle
     direction -0.936955 0.347862 -0.0332887   
     length 3.26927  
     axis 0 0 0   XYZ 
    dof ry rz
    limits (-10.0 20.0)
           (-20.0 0.0)
  end
  begin
     id 25 
     name rhumerus
     direction -1 -4.4896e-011 1.78637e-018  
     length 4.40431   
     axis 180 30 90   XYZ
    dof rx ry rz
    limits (-90.0 60.0)
           (-90.0 90.0)
           (-90.0 90.0)
  end
  begin
     id 26 
     name rradius
     direction -1 -4.48955e-011 9.34036e-027   
     length 3.04688   
     axis 180 30 90   XYZ
    dof rx
    limits (-10.0 170.0)
  end
  begin
     id 27 
     name rwrist
     direction -1 -4.49011e-011 1.53461e-026   
     length 1.52344   
     axis -1.09697e-014 -90 -90   XYZ
    dof ry
    limits (-180.0 0.0)
  end
  begin
     id 28
     name rhand
     direction -1 -4.48834e-011 3.06923e-026   
     length 0.500489   
     axis -1.95843e-014 -90 -90   XYZ
    dof rx rz
    limits (-90.0 90.0)
           (-45.0 45.0)
  end
  begin
     id 29
     name rfingers
     direction -1 -4.48967e-011 6.13845e-026   
     length 0.403507   
     axis -3.91686e-014 -90 -90   XYZ
    dof rx
    limits (0.0 90.0)
  end
  begin
     id 30
     name rthumb
     direction -0.707107 -6.34826e-011 0.707107   
     length 0.579358   
     axis -90 -45 -2.85299e-015   XYZ
    dof rx rz
    limits (-45.0 45.0)
           (-45.0 45.0)
  end
:hierarchy
  begin
    root lhipjoint rhipjoint lowerback
    lhipjoint lfemur
    lfemur ltibia
    ltibia lfoot
    lfoot ltoes
    rhipjoint rfemur
    rfemur rtibia
    rtibia rfoot
    rfoot rtoes
    lowerback upperback
    upperback thorax
    thorax lowerneck lclavicle rclavicle
    lowerneck upperneck
    upperneck head
    lclavicle lhumerus
    lhumerus lradius
    lradius lwrist
    lwrist lhand lthumb
    lhand lfingers
    rclavicle rhumerus
    rhumerus rradius
    rradius rwrist
    rwrist rhand rthumb
    rhand rfingers
  end

#!OML:ASF H:\IndianDance\Patient Classification 1\Patient 1\Session 1\dancer.ASF
:FULLY-SPECIFIED
:DEGREES
1143
root 7.09917 15.8234 1.73386 123.873 -86.4655 -116.242
lowerback 1.65766 2.74324 2.02012
upperback -3.47807 3.55995 -3.46908
thorax -4.17937 1.62151 -4.90903
lowerneck -19.5281 -2.64191 -3.41215
upperneck 10.5551 -3.00187 2.27502
head 6.4669 -1.39541 0.951952
rclavicle 1.47598e-014 -1.59028e-015
rhumerus -40.7843 10.1255 -11.8454
rradius 115.163
rwrist -29.6152
rhand 13.0732 3.53418
rfingers 7.12502
rthumb 38.035 -22.2555
lclavicle 1.47598e-014 -1.59028e-015
lhumerus -58.9568 -16.5364 37.3117
lradius 129.222
lwrist 19.3426
lhand -0.260101 14.634
lfingers 7.12502
lthumb 25.3412 42.9704
rfemur -14.8091 11.5328 12.8873
rtibia 20.0669
rfoot -4.90684 -21.2965
rtoes -5.63609
lfemur -12.229 -1.21013 -11.6072
ltibia 19.9328
lfoot -9.55929 8.83597
ltoes -6.39722
1144
root 7.10203 15.8257 1.7263 126.221 -86.3404 -118.418
lowerback 1.85025 2.84778 1.98966
upperback -3.60031 3.6983 -3.44134
thorax -4.40651 1.68446 -4.8862
lowerneck -19.5579 -2.6185 -3.29334
upperneck 10.4031 -2.97274 2.10258
head 6.41689 -1.39165 0.880595
rclavicle -2.08227e-014 1.74931e-014
rhumerus -42.2898 10.0939 -12.7058
rradius 115.838
rwrist -27.0412
rhand 14.2278 3.44445
rfingers 7.12502
rthumb 39.1243 -22.0399
lclavicle -2.08227e-014 1.74931e-014
lhumerus -60.2711 -15.5229 37.5987
lradius 129.72
lwrist 18.7445
lhand 1.1371 14.2765
lfingers 7.12502
lthumb 26.6791 42.4162
rfemur -15.0618 11.5822 12.907
rtibia 20.062
rfoot -4.88712 -21.1884
rtoes -5.77887
lfemur -12.3742 -1.3332 -11.5223
ltibia 19.9279
lfoot -9.50966 9.16072
ltoes -6.30352
1145
root 7.10439 15.8281 1.7193 128.326 -86.2195 -120.327
lowerback 2.04369 2.9593 1.96856
upperback -3.74822 3.84491 -3.42667
thorax -4.65943 1.74963 -4.88518
lowerneck -19.5534 -2.60122 -3.16748
upperneck 10.2782 -2.95927 1.95494
head 6.37097 -1.39313 0.814705
rclavicle 7.23576e-014 1.27222e-014
rhumerus -43.9504 9.85055 -13.6311
rradius 116.533
rwrist -24.6752
rhand 15.1736 3.35144
rfingers 7.12502
rthumb 40.015 -21.8701
lclavicle 7.23576e-014 1.27222e-014
lhumerus -61.5594 -14.2712 37.9298
lradius 130.235
lwrist 18.1937
lhand 2.24621 13.9949
lfingers 7.12502
lthumb 27.74 41.9684
rfemur -15.3293 11.6394 12.9158
rtibia 20.0498
rfoot -4.87024 -21.1061
rtoes -5.90838
lfemur -12.546 -1.44287 -11.4414
ltibia 19.9236
lfoot -9.46307 9.46447
ltoes -6.21521
1146
root 7.1062 15.8307 1.71278 130.203 -86.1061 -121.984
lowerback 2.23385 3.07715 1.95365
upperback -3.91735 3.99898 -3.42297
thorax -4.93154 1.81691 -4.90172
lowerneck -19.5375 -2.59125 -3.03179
upperneck 10.1931 -2.96109 1.82054
head 6.33663 -1.40041 0.749872
rclavicle -4.52235e-015 -6.36111e-015
rhumerus -45.7324 9.36211 -14.5896
rradius 117.23
rwrist -22.5315
rhand 15.9442 3.22775
rfingers 7.12502
rthumb 40.7397 -21.7708
lclavicle -4.52235e-015 -6.36111e-015
lhumerus -62.8248 -12.7999 38.3083
lradius 130.786
lwrist 17.7186
lhand 2.96649 13.7747
lfingers 7.12502
lthumb 28.4285 41.6353
rfemur -15.6122 11.7082 12.9121
rtibia 20.0308
rfoot -4.85547 -21.0555
rtoes -6.02479
lfemur -12.7457 -1.53959 -11.3648
ltibia 19.9182
lfoot -9.41928 9.74458
ltoes -6.12902
1147
root 7.1074 15.8335 1.7067 131.893 -86.0067 -123.429
lowerback 2.40675 3.1986 1.93793
upperback -4.10425 4.15649 -3.42924
thorax -5.2122 1.8848 -4.92963
lowerneck -19.4847 -2.58608 -2.8929
upperneck 10.1238 -2.97489 1.70918
head 6.3021 -1.41147 0.69101
rclavicle 3.93594e-014 6.36111e-015
rhumerus -47.6169 8.61963 -15.546
rradius 117.935
rwrist -20.6439
rhand 16.5874 3.05414
rfingers 7.12502
rthumb 41.3437 -21.752
lclavicle 3.93594e-014 6.36111e-015
lhumerus -64.0602 -11.1198 38.7317
lradius 131.373
lwrist 17.334
lhand 3.30501 13.6047
lfingers 7.12502
lthumb 28.752 41.4109
rfemur -15.9117 11.7864 12.8907
rtibia 20.0064
rfoot -4.8422 -21.0351
rtoes -6.13374
lfemur -12.9736 -1.62219 -11.2982
ltibia 19.9097
lfoot -9.37576 9.99889
ltoes -6.05629
1148
root 7.10789 15.8365 1.70089 133.379 -85.9233 -124.648
lowerback 2.56211 3.32159 1.91818
upperback -4.30461 4.31472 -3.44218
thorax -5.49746 1.9523 -4.96327
lowerneck -19.4123 -2.58483 -2.74565
upperneck 10.0811 -2.99816 1.60721
head 6.27323 -1.42598 0.632954
rclavicle 8.49804e-014 -5.725e-014
rhumerus -49.585 7.61603 -16.4627
rradius 118.647
rwrist -19.0294
rhand 17.144 2.82961
rfingers 7.12502
rthumb 41.8658 -21.8052
lclavicle 8.49804e-014 -5.725e-014
lhumerus -65.26 -9.2485 39.1928
lradius 131.999
lwrist 17.0518
lhand 3.28444 13.4442
lfingers 7.12502
lthumb 28.7323 41.2537
rfemur -16.2233 11.8765 12.8536
rtibia 19.978
rfoot -4.82935 -21.0478
rtoes -6.23288
lfemur -13.2251 -1.68923 -11.2399
ltibia 19.8958
lfoot -9.33086 10.2224
ltoes -5.9993
